<svg width="255" height="50" viewBox="0 0 255 50" fill="none" xmlns="http://www.w3.org/2000/svg">
<rect x="0.5" y="0.5" width="254" height="49" fill="white" stroke="#1E3240"/>
<path d="M19.584 19.184H27.684V20.408H21.042V24.872H27.324V26.114H21.042V30.776H27.684V32H19.584V19.184ZM40.03 22.73C42.034 22.73 43.036 23.924 43.036 26.312V32H41.578V26.384C41.578 25.532 41.428 24.914 41.128 24.53C40.84 24.146 40.366 23.954 39.706 23.954C38.938 23.954 38.338 24.212 37.906 24.728C37.474 25.244 37.258 25.946 37.258 26.834V32H35.8V26.384C35.8 25.544 35.65 24.932 35.35 24.548C35.05 24.152 34.57 23.954 33.91 23.954C33.142 23.954 32.536 24.212 32.092 24.728C31.66 25.244 31.444 25.946 31.444 26.834V32H29.986V25.484C29.986 24.548 29.938 23.702 29.842 22.946H31.228L31.372 24.53C31.624 23.954 31.996 23.51 32.488 23.198C32.992 22.886 33.574 22.73 34.234 22.73C34.954 22.73 35.542 22.874 35.998 23.162C36.454 23.45 36.79 23.894 37.006 24.494C37.282 23.954 37.684 23.528 38.212 23.216C38.752 22.892 39.358 22.73 40.03 22.73ZM53.7803 22.946V32H52.3403V30.362C52.0763 30.926 51.6743 31.364 51.1343 31.676C50.6063 31.976 49.9883 32.126 49.2803 32.126C48.4763 32.126 47.7683 31.934 47.1563 31.55C46.5563 31.166 46.0883 30.626 45.7523 29.93C45.4283 29.222 45.2663 28.4 45.2663 27.464C45.2663 26.528 45.4343 25.706 45.7703 24.998C46.1063 24.278 46.5743 23.72 47.1743 23.324C47.7863 22.928 48.4883 22.73 49.2803 22.73C49.9883 22.73 50.6063 22.886 51.1343 23.198C51.6623 23.51 52.0643 23.948 52.3403 24.512V22.946H53.7803ZM49.5683 30.92C50.4563 30.92 51.1403 30.62 51.6203 30.02C52.1003 29.408 52.3403 28.544 52.3403 27.428C52.3403 26.312 52.1003 25.454 51.6203 24.854C51.1403 24.254 50.4563 23.954 49.5683 23.954C48.6803 23.954 47.9843 24.266 47.4803 24.89C46.9883 25.502 46.7423 26.36 46.7423 27.464C46.7423 28.568 46.9883 29.42 47.4803 30.02C47.9723 30.62 48.6683 30.92 49.5683 30.92ZM56.5993 22.946H58.0573V32H56.5993V22.946ZM58.2373 19.112V20.768H56.4553V19.112H58.2373ZM60.8884 18.752H62.3464V32H60.8884V18.752ZM77.8448 22.946V32H76.4048V30.362C76.1408 30.926 75.7388 31.364 75.1988 31.676C74.6708 31.976 74.0528 32.126 73.3448 32.126C72.5408 32.126 71.8328 31.934 71.2208 31.55C70.6208 31.166 70.1528 30.626 69.8168 29.93C69.4928 29.222 69.3308 28.4 69.3308 27.464C69.3308 26.528 69.4988 25.706 69.8348 24.998C70.1708 24.278 70.6388 23.72 71.2388 23.324C71.8508 22.928 72.5528 22.73 73.3448 22.73C74.0528 22.73 74.6708 22.886 75.1988 23.198C75.7268 23.51 76.1288 23.948 76.4048 24.512V22.946H77.8448ZM73.6328 30.92C74.5208 30.92 75.2048 30.62 75.6848 30.02C76.1648 29.408 76.4048 28.544 76.4048 27.428C76.4048 26.312 76.1648 25.454 75.6848 24.854C75.2048 24.254 74.5208 23.954 73.6328 23.954C72.7448 23.954 72.0488 24.266 71.5448 24.89C71.0528 25.502 70.8068 26.36 70.8068 27.464C70.8068 28.568 71.0528 29.42 71.5448 30.02C72.0368 30.62 72.7328 30.92 73.6328 30.92ZM88.6378 18.752V32H87.1978V30.362C86.9338 30.926 86.5318 31.364 85.9918 31.676C85.4638 31.976 84.8458 32.126 84.1378 32.126C83.3458 32.126 82.6438 31.928 82.0318 31.532C81.4318 31.136 80.9638 30.584 80.6278 29.876C80.2918 29.156 80.1238 28.328 80.1238 27.392C80.1238 26.456 80.2858 25.64 80.6098 24.944C80.9458 24.236 81.4198 23.69 82.0318 23.306C82.6438 22.922 83.3458 22.73 84.1378 22.73C84.8458 22.73 85.4638 22.886 85.9918 23.198C86.5198 23.498 86.9158 23.924 87.1798 24.476V18.752H88.6378ZM84.4258 30.92C85.3138 30.92 85.9978 30.62 86.4778 30.02C86.9578 29.408 87.1978 28.544 87.1978 27.428C87.1978 26.324 86.9578 25.472 86.4778 24.872C85.9978 24.26 85.3138 23.954 84.4258 23.954C83.5378 23.954 82.8418 24.254 82.3378 24.854C81.8458 25.454 81.5998 26.3 81.5998 27.392C81.5998 28.508 81.8458 29.378 82.3378 30.002C82.8418 30.614 83.5378 30.92 84.4258 30.92ZM99.4307 18.752V32H97.9907V30.362C97.7267 30.926 97.3247 31.364 96.7847 31.676C96.2567 31.976 95.6387 32.126 94.9307 32.126C94.1387 32.126 93.4367 31.928 92.8247 31.532C92.2247 31.136 91.7567 30.584 91.4207 29.876C91.0847 29.156 90.9167 28.328 90.9167 27.392C90.9167 26.456 91.0787 25.64 91.4027 24.944C91.7387 24.236 92.2127 23.69 92.8247 23.306C93.4367 22.922 94.1387 22.73 94.9307 22.73C95.6387 22.73 96.2567 22.886 96.7847 23.198C97.3127 23.498 97.7087 23.924 97.9727 24.476V18.752H99.4307ZM95.2187 30.92C96.1067 30.92 96.7907 30.62 97.2707 30.02C97.7507 29.408 97.9907 28.544 97.9907 27.428C97.9907 26.324 97.7507 25.472 97.2707 24.872C96.7907 24.26 96.1067 23.954 95.2187 23.954C94.3307 23.954 93.6347 24.254 93.1307 24.854C92.6387 25.454 92.3927 26.3 92.3927 27.392C92.3927 28.508 92.6387 29.378 93.1307 30.002C93.6347 30.614 94.3307 30.92 95.2187 30.92ZM106.462 22.73C106.762 22.73 107.038 22.766 107.29 22.838L107.254 24.17C106.978 24.074 106.66 24.026 106.3 24.026C105.424 24.026 104.77 24.302 104.338 24.854C103.918 25.394 103.708 26.054 103.708 26.834V32H102.25V25.484C102.25 24.548 102.202 23.702 102.106 22.946H103.492L103.636 24.62C103.864 24.008 104.23 23.54 104.734 23.216C105.238 22.892 105.814 22.73 106.462 22.73ZM116.173 27.428H109.531C109.543 28.58 109.807 29.45 110.323 30.038C110.851 30.626 111.613 30.92 112.609 30.92C113.665 30.92 114.637 30.566 115.525 29.858L116.011 30.92C115.615 31.292 115.105 31.586 114.481 31.802C113.869 32.018 113.239 32.126 112.591 32.126C111.175 32.126 110.065 31.712 109.261 30.884C108.457 30.044 108.055 28.898 108.055 27.446C108.055 26.522 108.235 25.706 108.595 24.998C108.955 24.278 109.459 23.72 110.107 23.324C110.755 22.928 111.493 22.73 112.321 22.73C113.521 22.73 114.463 23.126 115.147 23.918C115.831 24.698 116.173 25.778 116.173 27.158V27.428ZM112.339 23.864C111.583 23.864 110.965 24.092 110.485 24.548C110.017 25.004 109.717 25.646 109.585 26.474H114.859C114.787 25.622 114.535 24.974 114.103 24.53C113.683 24.086 113.095 23.864 112.339 23.864ZM121.446 32.126C119.922 32.126 118.716 31.736 117.828 30.956L118.314 29.876C118.806 30.26 119.304 30.536 119.808 30.704C120.312 30.872 120.876 30.956 121.5 30.956C122.184 30.956 122.7 30.842 123.048 30.614C123.408 30.374 123.588 30.032 123.588 29.588C123.588 29.228 123.468 28.94 123.228 28.724C122.988 28.508 122.592 28.34 122.04 28.22L120.51 27.86C119.754 27.692 119.166 27.392 118.746 26.96C118.338 26.528 118.134 26.012 118.134 25.412C118.134 24.62 118.452 23.978 119.088 23.486C119.724 22.982 120.564 22.73 121.608 22.73C122.244 22.73 122.844 22.832 123.408 23.036C123.972 23.24 124.446 23.534 124.83 23.918L124.344 24.98C123.492 24.272 122.58 23.918 121.608 23.918C120.96 23.918 120.456 24.044 120.096 24.296C119.748 24.536 119.574 24.878 119.574 25.322C119.574 25.694 119.682 25.988 119.898 26.204C120.126 26.42 120.486 26.588 120.978 26.708L122.508 27.086C123.348 27.278 123.972 27.578 124.38 27.986C124.788 28.382 124.992 28.904 124.992 29.552C124.992 30.332 124.674 30.956 124.038 31.424C123.402 31.892 122.538 32.126 121.446 32.126ZM130.376 32.126C128.852 32.126 127.646 31.736 126.758 30.956L127.244 29.876C127.736 30.26 128.234 30.536 128.738 30.704C129.242 30.872 129.806 30.956 130.43 30.956C131.114 30.956 131.63 30.842 131.978 30.614C132.338 30.374 132.518 30.032 132.518 29.588C132.518 29.228 132.398 28.94 132.158 28.724C131.918 28.508 131.522 28.34 130.97 28.22L129.44 27.86C128.684 27.692 128.096 27.392 127.676 26.96C127.268 26.528 127.064 26.012 127.064 25.412C127.064 24.62 127.382 23.978 128.018 23.486C128.654 22.982 129.494 22.73 130.538 22.73C131.174 22.73 131.774 22.832 132.338 23.036C132.902 23.24 133.376 23.534 133.76 23.918L133.274 24.98C132.422 24.272 131.51 23.918 130.538 23.918C129.89 23.918 129.386 24.044 129.026 24.296C128.678 24.536 128.504 24.878 128.504 25.322C128.504 25.694 128.612 25.988 128.828 26.204C129.056 26.42 129.416 26.588 129.908 26.708L131.438 27.086C132.278 27.278 132.902 27.578 133.31 27.986C133.718 28.382 133.922 28.904 133.922 29.552C133.922 30.332 133.604 30.956 132.968 31.424C132.332 31.892 131.468 32.126 130.376 32.126Z" fill="#BDBDBD"/>
</svg>
