<svg width="255" height="50" viewBox="0 0 255 50" fill="none" xmlns="http://www.w3.org/2000/svg">
<rect x="0.5" y="0.5" width="254" height="49" fill="white" stroke="#1E3240"/>
<path d="M19.584 19.184H24.696C26.016 19.184 27.042 19.502 27.774 20.138C28.518 20.774 28.89 21.65 28.89 22.766C28.89 23.882 28.518 24.764 27.774 25.412C27.03 26.048 26.004 26.366 24.696 26.366H21.06V32H19.584V19.184ZM24.57 25.142C25.518 25.142 26.232 24.938 26.712 24.53C27.192 24.122 27.432 23.534 27.432 22.766C27.432 21.998 27.192 21.416 26.712 21.02C26.232 20.612 25.518 20.408 24.57 20.408H21.06V25.142H24.57ZM35.6466 22.73C37.8186 22.73 38.9046 23.924 38.9046 26.312V32H37.4466V26.384C37.4466 25.544 37.2786 24.932 36.9426 24.548C36.6066 24.152 36.0786 23.954 35.3586 23.954C34.5186 23.954 33.8466 24.212 33.3426 24.728C32.8386 25.244 32.5866 25.94 32.5866 26.816V32H31.1286V18.752H32.5866V24.422C32.8746 23.87 33.2826 23.45 33.8106 23.162C34.3506 22.874 34.9626 22.73 35.6466 22.73ZM45.4019 32.126C44.5499 32.126 43.7999 31.934 43.1519 31.55C42.5039 31.166 41.9999 30.62 41.6399 29.912C41.2919 29.204 41.1179 28.376 41.1179 27.428C41.1179 26.48 41.2919 25.652 41.6399 24.944C41.9999 24.236 42.5039 23.69 43.1519 23.306C43.7999 22.922 44.5499 22.73 45.4019 22.73C46.2539 22.73 47.0039 22.922 47.6519 23.306C48.2999 23.69 48.7979 24.236 49.1459 24.944C49.5059 25.652 49.6859 26.48 49.6859 27.428C49.6859 28.376 49.5059 29.204 49.1459 29.912C48.7979 30.62 48.2999 31.166 47.6519 31.55C47.0039 31.934 46.2539 32.126 45.4019 32.126ZM45.4019 30.92C46.3019 30.92 46.9919 30.626 47.4719 30.038C47.9519 29.438 48.1919 28.568 48.1919 27.428C48.1919 26.324 47.9459 25.472 47.4539 24.872C46.9619 24.26 46.2779 23.954 45.4019 23.954C44.5139 23.954 43.8239 24.26 43.3319 24.872C42.8399 25.472 42.5939 26.324 42.5939 27.428C42.5939 28.568 42.8339 29.438 43.3139 30.038C43.8059 30.626 44.5019 30.92 45.4019 30.92ZM56.4767 22.73C58.6487 22.73 59.7347 23.924 59.7347 26.312V32H58.2767V26.384C58.2767 25.544 58.1087 24.932 57.7727 24.548C57.4367 24.152 56.9087 23.954 56.1887 23.954C55.3487 23.954 54.6767 24.212 54.1727 24.728C53.6687 25.244 53.4167 25.94 53.4167 26.816V32H51.9587V25.484C51.9587 24.548 51.9107 23.702 51.8147 22.946H53.2007L53.3447 24.566C53.6207 23.978 54.0347 23.528 54.5867 23.216C55.1387 22.892 55.7687 22.73 56.4767 22.73ZM70.066 27.428H63.424C63.436 28.58 63.7 29.45 64.216 30.038C64.744 30.626 65.506 30.92 66.502 30.92C67.558 30.92 68.53 30.566 69.418 29.858L69.904 30.92C69.508 31.292 68.998 31.586 68.374 31.802C67.762 32.018 67.132 32.126 66.484 32.126C65.068 32.126 63.958 31.712 63.154 30.884C62.35 30.044 61.948 28.898 61.948 27.446C61.948 26.522 62.128 25.706 62.488 24.998C62.848 24.278 63.352 23.72 64 23.324C64.648 22.928 65.386 22.73 66.214 22.73C67.414 22.73 68.356 23.126 69.04 23.918C69.724 24.698 70.066 25.778 70.066 27.158V27.428ZM66.232 23.864C65.476 23.864 64.858 24.092 64.378 24.548C63.91 25.004 63.61 25.646 63.478 26.474H68.752C68.68 25.622 68.428 24.974 67.996 24.53C67.576 24.086 66.988 23.864 66.232 23.864ZM81.4904 22.73C83.6624 22.73 84.7484 23.924 84.7484 26.312V32H83.2904V26.384C83.2904 25.544 83.1224 24.932 82.7864 24.548C82.4504 24.152 81.9224 23.954 81.2024 23.954C80.3624 23.954 79.6904 24.212 79.1864 24.728C78.6824 25.244 78.4304 25.94 78.4304 26.816V32H76.9724V25.484C76.9724 24.548 76.9244 23.702 76.8284 22.946H78.2144L78.3584 24.566C78.6344 23.978 79.0484 23.528 79.6004 23.216C80.1524 22.892 80.7824 22.73 81.4904 22.73ZM95.0797 22.946V32H93.6577V30.434C93.3697 30.986 92.9677 31.406 92.4517 31.694C91.9357 31.982 91.3537 32.126 90.7057 32.126C89.6377 32.126 88.8277 31.826 88.2757 31.226C87.7237 30.626 87.4477 29.738 87.4477 28.562V22.946H88.9057V28.526C88.9057 29.342 89.0737 29.942 89.4097 30.326C89.7457 30.71 90.2557 30.902 90.9397 30.902C91.7437 30.902 92.3917 30.644 92.8837 30.128C93.3757 29.6 93.6217 28.91 93.6217 28.058V22.946H95.0797ZM107.934 22.73C109.938 22.73 110.94 23.924 110.94 26.312V32H109.482V26.384C109.482 25.532 109.332 24.914 109.032 24.53C108.744 24.146 108.27 23.954 107.61 23.954C106.842 23.954 106.242 24.212 105.81 24.728C105.378 25.244 105.162 25.946 105.162 26.834V32H103.704V26.384C103.704 25.544 103.554 24.932 103.254 24.548C102.954 24.152 102.474 23.954 101.814 23.954C101.046 23.954 100.44 24.212 99.9963 24.728C99.5643 25.244 99.3483 25.946 99.3483 26.834V32H97.8903V25.484C97.8903 24.548 97.8423 23.702 97.7463 22.946H99.1323L99.2763 24.53C99.5283 23.954 99.9003 23.51 100.392 23.198C100.896 22.886 101.478 22.73 102.138 22.73C102.858 22.73 103.446 22.874 103.902 23.162C104.358 23.45 104.694 23.894 104.91 24.494C105.186 23.954 105.588 23.528 106.116 23.216C106.656 22.892 107.262 22.73 107.934 22.73ZM118.229 22.73C119.021 22.73 119.723 22.922 120.335 23.306C120.947 23.69 121.421 24.236 121.757 24.944C122.093 25.64 122.261 26.456 122.261 27.392C122.261 28.328 122.093 29.156 121.757 29.876C121.421 30.584 120.947 31.136 120.335 31.532C119.723 31.928 119.021 32.126 118.229 32.126C117.521 32.126 116.903 31.97 116.375 31.658C115.847 31.346 115.445 30.902 115.169 30.326V32H113.711V18.752H115.169V24.548C115.433 23.96 115.829 23.51 116.357 23.198C116.897 22.886 117.521 22.73 118.229 22.73ZM117.959 30.92C118.835 30.92 119.519 30.614 120.011 30.002C120.503 29.378 120.749 28.508 120.749 27.392C120.749 26.3 120.503 25.454 120.011 24.854C119.531 24.254 118.847 23.954 117.959 23.954C117.059 23.954 116.369 24.254 115.889 24.854C115.409 25.454 115.169 26.312 115.169 27.428C115.169 28.544 115.409 29.408 115.889 30.02C116.369 30.62 117.059 30.92 117.959 30.92ZM132.082 27.428H125.44C125.452 28.58 125.716 29.45 126.232 30.038C126.76 30.626 127.522 30.92 128.518 30.92C129.574 30.92 130.546 30.566 131.434 29.858L131.92 30.92C131.524 31.292 131.014 31.586 130.39 31.802C129.778 32.018 129.148 32.126 128.5 32.126C127.084 32.126 125.974 31.712 125.17 30.884C124.366 30.044 123.964 28.898 123.964 27.446C123.964 26.522 124.144 25.706 124.504 24.998C124.864 24.278 125.368 23.72 126.016 23.324C126.664 22.928 127.402 22.73 128.23 22.73C129.43 22.73 130.372 23.126 131.056 23.918C131.74 24.698 132.082 25.778 132.082 27.158V27.428ZM128.248 23.864C127.492 23.864 126.874 24.092 126.394 24.548C125.926 25.004 125.626 25.646 125.494 26.474H130.768C130.696 25.622 130.444 24.974 130.012 24.53C129.592 24.086 129.004 23.864 128.248 23.864ZM138.507 22.73C138.807 22.73 139.083 22.766 139.335 22.838L139.299 24.17C139.023 24.074 138.705 24.026 138.345 24.026C137.469 24.026 136.815 24.302 136.383 24.854C135.963 25.394 135.753 26.054 135.753 26.834V32H134.295V25.484C134.295 24.548 134.247 23.702 134.151 22.946H135.537L135.681 24.62C135.909 24.008 136.275 23.54 136.779 23.216C137.283 22.892 137.859 22.73 138.507 22.73Z" fill="#BDBDBD"/>
</svg>
