<svg width="255" height="50" viewBox="0 0 255 50" fill="none" xmlns="http://www.w3.org/2000/svg">
<rect x="0.5" y="0.5" width="254" height="49" fill="white" stroke="#1E3240"/>
<path d="M19.584 19.184H21.06V30.74H27.486V32H19.584V19.184ZM37.169 22.946V32H35.729V30.362C35.465 30.926 35.063 31.364 34.523 31.676C33.995 31.976 33.377 32.126 32.669 32.126C31.865 32.126 31.157 31.934 30.545 31.55C29.945 31.166 29.477 30.626 29.141 29.93C28.817 29.222 28.655 28.4 28.655 27.464C28.655 26.528 28.823 25.706 29.159 24.998C29.495 24.278 29.963 23.72 30.563 23.324C31.175 22.928 31.877 22.73 32.669 22.73C33.377 22.73 33.995 22.886 34.523 23.198C35.051 23.51 35.453 23.948 35.729 24.512V22.946H37.169ZM32.957 30.92C33.845 30.92 34.529 30.62 35.009 30.02C35.489 29.408 35.729 28.544 35.729 27.428C35.729 26.312 35.489 25.454 35.009 24.854C34.529 24.254 33.845 23.954 32.957 23.954C32.069 23.954 31.373 24.266 30.869 24.89C30.377 25.502 30.131 26.36 30.131 27.464C30.131 28.568 30.377 29.42 30.869 30.02C31.361 30.62 32.057 30.92 32.957 30.92ZM43.048 32.126C41.524 32.126 40.318 31.736 39.43 30.956L39.916 29.876C40.408 30.26 40.906 30.536 41.41 30.704C41.914 30.872 42.478 30.956 43.102 30.956C43.786 30.956 44.302 30.842 44.65 30.614C45.01 30.374 45.19 30.032 45.19 29.588C45.19 29.228 45.07 28.94 44.83 28.724C44.59 28.508 44.194 28.34 43.642 28.22L42.112 27.86C41.356 27.692 40.768 27.392 40.348 26.96C39.94 26.528 39.736 26.012 39.736 25.412C39.736 24.62 40.054 23.978 40.69 23.486C41.326 22.982 42.166 22.73 43.21 22.73C43.846 22.73 44.446 22.832 45.01 23.036C45.574 23.24 46.048 23.534 46.432 23.918L45.946 24.98C45.094 24.272 44.182 23.918 43.21 23.918C42.562 23.918 42.058 24.044 41.698 24.296C41.35 24.536 41.176 24.878 41.176 25.322C41.176 25.694 41.284 25.988 41.5 26.204C41.728 26.42 42.088 26.588 42.58 26.708L44.11 27.086C44.95 27.278 45.574 27.578 45.982 27.986C46.39 28.382 46.594 28.904 46.594 29.552C46.594 30.332 46.276 30.956 45.64 31.424C45.004 31.892 44.14 32.126 43.048 32.126ZM50.7738 24.098V29.048C50.7738 29.72 50.9118 30.194 51.1878 30.47C51.4638 30.734 51.8538 30.866 52.3578 30.866C52.6938 30.866 53.0178 30.812 53.3298 30.704V31.946C52.9578 32.066 52.5378 32.126 52.0698 32.126C51.2058 32.126 50.5278 31.886 50.0358 31.406C49.5558 30.914 49.3158 30.194 49.3158 29.246V24.098H47.5518V22.946H49.3158V20.624L50.7738 20.102V22.946H53.3658V24.098H50.7738ZM64.3341 22.73C66.5061 22.73 67.5921 23.924 67.5921 26.312V32H66.1341V26.384C66.1341 25.544 65.9661 24.932 65.6301 24.548C65.2941 24.152 64.7661 23.954 64.0461 23.954C63.2061 23.954 62.5341 24.212 62.0301 24.728C61.5261 25.244 61.2741 25.94 61.2741 26.816V32H59.8161V25.484C59.8161 24.548 59.7681 23.702 59.6721 22.946H61.0581L61.2021 24.566C61.4781 23.978 61.8921 23.528 62.4441 23.216C62.9961 22.892 63.6261 22.73 64.3341 22.73ZM78.3194 22.946V32H76.8794V30.362C76.6154 30.926 76.2134 31.364 75.6734 31.676C75.1454 31.976 74.5274 32.126 73.8194 32.126C73.0154 32.126 72.3074 31.934 71.6954 31.55C71.0954 31.166 70.6274 30.626 70.2914 29.93C69.9674 29.222 69.8054 28.4 69.8054 27.464C69.8054 26.528 69.9734 25.706 70.3094 24.998C70.6454 24.278 71.1134 23.72 71.7134 23.324C72.3254 22.928 73.0274 22.73 73.8194 22.73C74.5274 22.73 75.1454 22.886 75.6734 23.198C76.2014 23.51 76.6034 23.948 76.8794 24.512V22.946H78.3194ZM74.1074 30.92C74.9954 30.92 75.6794 30.62 76.1594 30.02C76.6394 29.408 76.8794 28.544 76.8794 27.428C76.8794 26.312 76.6394 25.454 76.1594 24.854C75.6794 24.254 74.9954 23.954 74.1074 23.954C73.2194 23.954 72.5234 24.266 72.0194 24.89C71.5274 25.502 71.2814 26.36 71.2814 27.464C71.2814 28.568 71.5274 29.42 72.0194 30.02C72.5114 30.62 73.2074 30.92 74.1074 30.92ZM91.1824 22.73C93.1864 22.73 94.1884 23.924 94.1884 26.312V32H92.7304V26.384C92.7304 25.532 92.5804 24.914 92.2804 24.53C91.9924 24.146 91.5184 23.954 90.8584 23.954C90.0904 23.954 89.4904 24.212 89.0584 24.728C88.6264 25.244 88.4104 25.946 88.4104 26.834V32H86.9524V26.384C86.9524 25.544 86.8024 24.932 86.5024 24.548C86.2024 24.152 85.7224 23.954 85.0624 23.954C84.2944 23.954 83.6884 24.212 83.2444 24.728C82.8124 25.244 82.5964 25.946 82.5964 26.834V32H81.1384V25.484C81.1384 24.548 81.0904 23.702 80.9944 22.946H82.3804L82.5244 24.53C82.7764 23.954 83.1484 23.51 83.6404 23.198C84.1444 22.886 84.7264 22.73 85.3864 22.73C86.1064 22.73 86.6944 22.874 87.1504 23.162C87.6064 23.45 87.9424 23.894 88.1584 24.494C88.4344 23.954 88.8364 23.528 89.3644 23.216C89.9044 22.892 90.5104 22.73 91.1824 22.73ZM104.537 27.428H97.8947C97.9067 28.58 98.1707 29.45 98.6867 30.038C99.2147 30.626 99.9767 30.92 100.973 30.92C102.029 30.92 103.001 30.566 103.889 29.858L104.375 30.92C103.979 31.292 103.469 31.586 102.845 31.802C102.233 32.018 101.603 32.126 100.955 32.126C99.5387 32.126 98.4287 31.712 97.6247 30.884C96.8207 30.044 96.4187 28.898 96.4187 27.446C96.4187 26.522 96.5987 25.706 96.9587 24.998C97.3187 24.278 97.8227 23.72 98.4707 23.324C99.1187 22.928 99.8567 22.73 100.685 22.73C101.885 22.73 102.827 23.126 103.511 23.918C104.195 24.698 104.537 25.778 104.537 27.158V27.428ZM100.703 23.864C99.9467 23.864 99.3287 24.092 98.8487 24.548C98.3807 25.004 98.0807 25.646 97.9487 26.474H103.223C103.151 25.622 102.899 24.974 102.467 24.53C102.047 24.086 101.459 23.864 100.703 23.864Z" fill="#BDBDBD"/>
</svg>
