<svg width="255" height="50" viewBox="0 0 255 50" fill="none" xmlns="http://www.w3.org/2000/svg">
<rect x="0.5" y="0.5" width="254" height="49" fill="white" stroke="#1E3240"/>
<path d="M19.584 19.184H27.504V20.426H21.042V24.872H27.144V26.114H21.042V32H19.584V19.184ZM29.5466 22.946H31.0046V32H29.5466V22.946ZM31.1846 19.112V20.768H29.4026V19.112H31.1846ZM38.0476 22.73C38.3476 22.73 38.6236 22.766 38.8756 22.838L38.8396 24.17C38.5636 24.074 38.2456 24.026 37.8856 24.026C37.0096 24.026 36.3556 24.302 35.9236 24.854C35.5036 25.394 35.2936 26.054 35.2936 26.834V32H33.8356V25.484C33.8356 24.548 33.7876 23.702 33.6916 22.946H35.0776L35.2216 24.62C35.4496 24.008 35.8156 23.54 36.3196 23.216C36.8236 22.892 37.3996 22.73 38.0476 22.73ZM43.3292 32.126C41.8052 32.126 40.5992 31.736 39.7112 30.956L40.1972 29.876C40.6892 30.26 41.1872 30.536 41.6912 30.704C42.1952 30.872 42.7592 30.956 43.3832 30.956C44.0672 30.956 44.5832 30.842 44.9312 30.614C45.2912 30.374 45.4712 30.032 45.4712 29.588C45.4712 29.228 45.3512 28.94 45.1112 28.724C44.8712 28.508 44.4752 28.34 43.9232 28.22L42.3932 27.86C41.6372 27.692 41.0492 27.392 40.6292 26.96C40.2212 26.528 40.0172 26.012 40.0172 25.412C40.0172 24.62 40.3352 23.978 40.9712 23.486C41.6072 22.982 42.4472 22.73 43.4912 22.73C44.1272 22.73 44.7272 22.832 45.2912 23.036C45.8552 23.24 46.3292 23.534 46.7132 23.918L46.2272 24.98C45.3752 24.272 44.4632 23.918 43.4912 23.918C42.8432 23.918 42.3392 24.044 41.9792 24.296C41.6312 24.536 41.4572 24.878 41.4572 25.322C41.4572 25.694 41.5652 25.988 41.7812 26.204C42.0092 26.42 42.3692 26.588 42.8612 26.708L44.3912 27.086C45.2312 27.278 45.8552 27.578 46.2632 27.986C46.6712 28.382 46.8752 28.904 46.8752 29.552C46.8752 30.332 46.5572 30.956 45.9212 31.424C45.2852 31.892 44.4212 32.126 43.3292 32.126ZM51.055 24.098V29.048C51.055 29.72 51.193 30.194 51.469 30.47C51.745 30.734 52.135 30.866 52.639 30.866C52.975 30.866 53.299 30.812 53.611 30.704V31.946C53.239 32.066 52.819 32.126 52.351 32.126C51.487 32.126 50.809 31.886 50.317 31.406C49.837 30.914 49.597 30.194 49.597 29.246V24.098H47.833V22.946H49.597V20.624L51.055 20.102V22.946H53.647V24.098H51.055ZM64.6154 22.73C66.7874 22.73 67.8734 23.924 67.8734 26.312V32H66.4154V26.384C66.4154 25.544 66.2474 24.932 65.9114 24.548C65.5754 24.152 65.0474 23.954 64.3274 23.954C63.4874 23.954 62.8154 24.212 62.3114 24.728C61.8074 25.244 61.5554 25.94 61.5554 26.816V32H60.0974V25.484C60.0974 24.548 60.0494 23.702 59.9534 22.946H61.3394L61.4834 24.566C61.7594 23.978 62.1734 23.528 62.7254 23.216C63.2774 22.892 63.9074 22.73 64.6154 22.73ZM78.6007 22.946V32H77.1607V30.362C76.8967 30.926 76.4947 31.364 75.9547 31.676C75.4267 31.976 74.8087 32.126 74.1007 32.126C73.2967 32.126 72.5887 31.934 71.9767 31.55C71.3767 31.166 70.9087 30.626 70.5727 29.93C70.2487 29.222 70.0867 28.4 70.0867 27.464C70.0867 26.528 70.2547 25.706 70.5907 24.998C70.9267 24.278 71.3947 23.72 71.9947 23.324C72.6067 22.928 73.3087 22.73 74.1007 22.73C74.8087 22.73 75.4267 22.886 75.9547 23.198C76.4827 23.51 76.8847 23.948 77.1607 24.512V22.946H78.6007ZM74.3887 30.92C75.2767 30.92 75.9607 30.62 76.4407 30.02C76.9207 29.408 77.1607 28.544 77.1607 27.428C77.1607 26.312 76.9207 25.454 76.4407 24.854C75.9607 24.254 75.2767 23.954 74.3887 23.954C73.5007 23.954 72.8047 24.266 72.3007 24.89C71.8087 25.502 71.5627 26.36 71.5627 27.464C71.5627 28.568 71.8087 29.42 72.3007 30.02C72.7927 30.62 73.4887 30.92 74.3887 30.92ZM91.4636 22.73C93.4676 22.73 94.4696 23.924 94.4696 26.312V32H93.0116V26.384C93.0116 25.532 92.8616 24.914 92.5616 24.53C92.2736 24.146 91.7996 23.954 91.1396 23.954C90.3716 23.954 89.7716 24.212 89.3396 24.728C88.9076 25.244 88.6916 25.946 88.6916 26.834V32H87.2336V26.384C87.2336 25.544 87.0836 24.932 86.7836 24.548C86.4836 24.152 86.0036 23.954 85.3436 23.954C84.5756 23.954 83.9696 24.212 83.5256 24.728C83.0936 25.244 82.8776 25.946 82.8776 26.834V32H81.4196V25.484C81.4196 24.548 81.3716 23.702 81.2756 22.946H82.6616L82.8056 24.53C83.0576 23.954 83.4296 23.51 83.9216 23.198C84.4256 22.886 85.0076 22.73 85.6676 22.73C86.3876 22.73 86.9756 22.874 87.4316 23.162C87.8876 23.45 88.2236 23.894 88.4396 24.494C88.7156 23.954 89.1176 23.528 89.6456 23.216C90.1856 22.892 90.7916 22.73 91.4636 22.73ZM104.818 27.428H98.1759C98.1879 28.58 98.4519 29.45 98.9679 30.038C99.4959 30.626 100.258 30.92 101.254 30.92C102.31 30.92 103.282 30.566 104.17 29.858L104.656 30.92C104.26 31.292 103.75 31.586 103.126 31.802C102.514 32.018 101.884 32.126 101.236 32.126C99.8199 32.126 98.7099 31.712 97.9059 30.884C97.1019 30.044 96.6999 28.898 96.6999 27.446C96.6999 26.522 96.8799 25.706 97.2399 24.998C97.5999 24.278 98.1039 23.72 98.7519 23.324C99.3999 22.928 100.138 22.73 100.966 22.73C102.166 22.73 103.108 23.126 103.792 23.918C104.476 24.698 104.818 25.778 104.818 27.158V27.428ZM100.984 23.864C100.228 23.864 99.6099 24.092 99.1299 24.548C98.6619 25.004 98.3619 25.646 98.2299 26.474H103.504C103.432 25.622 103.18 24.974 102.748 24.53C102.328 24.086 101.74 23.864 100.984 23.864Z" fill="#BDBDBD"/>
</svg>
