<svg width="540" height="120" viewBox="0 0 540 120" fill="none" xmlns="http://www.w3.org/2000/svg">
<rect x="0.5" y="0.5" width="539" height="119" fill="white" stroke="#1E3240"/>
<path d="M19.584 19.184H23.886C25.938 19.184 27.522 19.742 28.638 20.858C29.766 21.962 30.33 23.534 30.33 25.574C30.33 27.626 29.766 29.21 28.638 30.326C27.522 31.442 25.938 32 23.886 32H19.584V19.184ZM23.796 30.74C25.452 30.74 26.694 30.308 27.522 29.444C28.362 28.58 28.782 27.29 28.782 25.574C28.782 22.154 27.12 20.444 23.796 20.444H21.06V30.74H23.796ZM40.4117 27.428H33.7697C33.7817 28.58 34.0457 29.45 34.5617 30.038C35.0897 30.626 35.8517 30.92 36.8477 30.92C37.9037 30.92 38.8757 30.566 39.7637 29.858L40.2497 30.92C39.8537 31.292 39.3437 31.586 38.7197 31.802C38.1077 32.018 37.4777 32.126 36.8297 32.126C35.4137 32.126 34.3037 31.712 33.4997 30.884C32.6957 30.044 32.2937 28.898 32.2937 27.446C32.2937 26.522 32.4737 25.706 32.8337 24.998C33.1937 24.278 33.6977 23.72 34.3457 23.324C34.9937 22.928 35.7317 22.73 36.5597 22.73C37.7597 22.73 38.7017 23.126 39.3857 23.918C40.0697 24.698 40.4117 25.778 40.4117 27.158V27.428ZM36.5777 23.864C35.8217 23.864 35.2037 24.092 34.7237 24.548C34.2557 25.004 33.9557 25.646 33.8237 26.474H39.0977C39.0257 25.622 38.7737 24.974 38.3417 24.53C37.9217 24.086 37.3337 23.864 36.5777 23.864ZM45.6847 32.126C44.1607 32.126 42.9547 31.736 42.0667 30.956L42.5527 29.876C43.0447 30.26 43.5427 30.536 44.0467 30.704C44.5507 30.872 45.1147 30.956 45.7387 30.956C46.4227 30.956 46.9387 30.842 47.2867 30.614C47.6467 30.374 47.8267 30.032 47.8267 29.588C47.8267 29.228 47.7067 28.94 47.4667 28.724C47.2267 28.508 46.8307 28.34 46.2787 28.22L44.7487 27.86C43.9927 27.692 43.4047 27.392 42.9847 26.96C42.5767 26.528 42.3727 26.012 42.3727 25.412C42.3727 24.62 42.6907 23.978 43.3267 23.486C43.9627 22.982 44.8027 22.73 45.8467 22.73C46.4827 22.73 47.0827 22.832 47.6467 23.036C48.2107 23.24 48.6847 23.534 49.0687 23.918L48.5827 24.98C47.7307 24.272 46.8187 23.918 45.8467 23.918C45.1987 23.918 44.6947 24.044 44.3347 24.296C43.9867 24.536 43.8127 24.878 43.8127 25.322C43.8127 25.694 43.9207 25.988 44.1367 26.204C44.3647 26.42 44.7247 26.588 45.2167 26.708L46.7467 27.086C47.5867 27.278 48.2107 27.578 48.6187 27.986C49.0267 28.382 49.2307 28.904 49.2307 29.552C49.2307 30.332 48.9127 30.956 48.2767 31.424C47.6407 31.892 46.7767 32.126 45.6847 32.126ZM55.3524 32.126C54.4764 32.126 53.7084 31.934 53.0484 31.55C52.4004 31.166 51.8964 30.626 51.5364 29.93C51.1884 29.222 51.0144 28.4 51.0144 27.464C51.0144 26.528 51.1944 25.706 51.5544 24.998C51.9144 24.278 52.4244 23.72 53.0844 23.324C53.7564 22.928 54.5364 22.73 55.4244 22.73C56.0364 22.73 56.6244 22.838 57.1884 23.054C57.7644 23.258 58.2384 23.546 58.6104 23.918L58.1244 24.998C57.6684 24.638 57.2244 24.374 56.7924 24.206C56.3724 24.038 55.9404 23.954 55.4964 23.954C54.5724 23.954 53.8464 24.266 53.3184 24.89C52.7904 25.502 52.5264 26.36 52.5264 27.464C52.5264 28.556 52.7844 29.408 53.3004 30.02C53.8284 30.62 54.5604 30.92 55.4964 30.92C55.9404 30.92 56.3724 30.836 56.7924 30.668C57.2244 30.5 57.6684 30.236 58.1244 29.876L58.6104 30.956C58.2264 31.316 57.7404 31.604 57.1524 31.82C56.5764 32.024 55.9764 32.126 55.3524 32.126ZM64.6785 22.73C64.9785 22.73 65.2545 22.766 65.5065 22.838L65.4705 24.17C65.1945 24.074 64.8765 24.026 64.5165 24.026C63.6405 24.026 62.9865 24.302 62.5545 24.854C62.1345 25.394 61.9245 26.054 61.9245 26.834V32H60.4665V25.484C60.4665 24.548 60.4185 23.702 60.3225 22.946H61.7085L61.8525 24.62C62.0805 24.008 62.4465 23.54 62.9505 23.216C63.4545 22.892 64.0305 22.73 64.6785 22.73ZM66.988 22.946H68.446V32H66.988V22.946ZM68.626 19.112V20.768H66.844V19.112H68.626ZM75.795 22.73C76.587 22.73 77.289 22.928 77.901 23.324C78.513 23.72 78.987 24.278 79.323 24.998C79.659 25.706 79.827 26.528 79.827 27.464C79.827 28.4 79.659 29.222 79.323 29.93C78.987 30.626 78.513 31.166 77.901 31.55C77.301 31.934 76.599 32.126 75.795 32.126C75.087 32.126 74.469 31.97 73.941 31.658C73.413 31.346 73.011 30.902 72.735 30.326V35.888H71.277V25.484C71.277 24.548 71.229 23.702 71.133 22.946H72.519L72.663 24.692C72.915 24.068 73.311 23.588 73.851 23.252C74.403 22.904 75.051 22.73 75.795 22.73ZM75.525 30.92C76.413 30.92 77.097 30.62 77.577 30.02C78.069 29.42 78.315 28.568 78.315 27.464C78.315 26.36 78.069 25.502 77.577 24.89C77.085 24.266 76.401 23.954 75.525 23.954C74.625 23.954 73.935 24.254 73.455 24.854C72.975 25.454 72.735 26.312 72.735 27.428C72.735 28.544 72.975 29.408 73.455 30.02C73.935 30.62 74.625 30.92 75.525 30.92ZM83.9964 24.098V29.048C83.9964 29.72 84.1344 30.194 84.4104 30.47C84.6864 30.734 85.0764 30.866 85.5804 30.866C85.9164 30.866 86.2404 30.812 86.5524 30.704V31.946C86.1804 32.066 85.7604 32.126 85.2924 32.126C84.4284 32.126 83.7504 31.886 83.2584 31.406C82.7784 30.914 82.5384 30.194 82.5384 29.246V24.098H80.7744V22.946H82.5384V20.624L83.9964 20.102V22.946H86.5884V24.098H83.9964ZM88.3454 22.946H89.8034V32H88.3454V22.946ZM89.9834 19.112V20.768H88.2014V19.112H89.9834ZM96.3785 32.126C95.5265 32.126 94.7765 31.934 94.1285 31.55C93.4805 31.166 92.9765 30.62 92.6165 29.912C92.2685 29.204 92.0945 28.376 92.0945 27.428C92.0945 26.48 92.2685 25.652 92.6165 24.944C92.9765 24.236 93.4805 23.69 94.1285 23.306C94.7765 22.922 95.5265 22.73 96.3785 22.73C97.2305 22.73 97.9805 22.922 98.6285 23.306C99.2765 23.69 99.7745 24.236 100.122 24.944C100.482 25.652 100.662 26.48 100.662 27.428C100.662 28.376 100.482 29.204 100.122 29.912C99.7745 30.62 99.2765 31.166 98.6285 31.55C97.9805 31.934 97.2305 32.126 96.3785 32.126ZM96.3785 30.92C97.2785 30.92 97.9685 30.626 98.4485 30.038C98.9285 29.438 99.1685 28.568 99.1685 27.428C99.1685 26.324 98.9225 25.472 98.4305 24.872C97.9385 24.26 97.2545 23.954 96.3785 23.954C95.4905 23.954 94.8005 24.26 94.3085 24.872C93.8165 25.472 93.5705 26.324 93.5705 27.428C93.5705 28.568 93.8105 29.438 94.2905 30.038C94.7825 30.626 95.4785 30.92 96.3785 30.92ZM107.453 22.73C109.625 22.73 110.711 23.924 110.711 26.312V32H109.253V26.384C109.253 25.544 109.085 24.932 108.749 24.548C108.413 24.152 107.885 23.954 107.165 23.954C106.325 23.954 105.653 24.212 105.149 24.728C104.645 25.244 104.393 25.94 104.393 26.816V32H102.935V25.484C102.935 24.548 102.887 23.702 102.791 22.946H104.177L104.321 24.566C104.597 23.978 105.011 23.528 105.563 23.216C106.115 22.892 106.745 22.73 107.453 22.73Z" fill="#BDBDBD"/>
</svg>
