<svg width="12" height="10" viewBox="0 0 12 10" fill="none" xmlns="http://www.w3.org/2000/svg">
<path fill-rule="evenodd" clip-rule="evenodd" d="M9.89212 2.90373C9.81017 3.30851 9.53451 3.81761 9.23155 4.36146C8.51139 5.65775 7.48578 7.03847 7.02885 7.70896C6.73582 8.14106 6.85005 8.7271 7.27967 9.02013C7.71176 9.31316 8.29783 9.20144 8.59086 8.76934C9.14961 7.94737 10.5129 6.10475 11.2455 4.57751C11.6379 3.75801 11.8415 3.00059 11.7968 2.45675C11.7223 1.53047 10.9897 0.951848 9.53699 0.986615C7.81854 1.02883 4.62747 1.89053 1.95542 0.854992C1.47118 0.66626 0.922386 0.909636 0.736137 1.39388C0.547405 1.88061 0.788267 2.42695 1.275 2.61568C3.82288 3.60156 6.79293 3.12725 8.792 2.92858C9.17194 2.89133 9.62392 2.89628 9.89212 2.90373Z" fill="#1E3240"/>
</svg>
